<svg width="18" height="19" viewBox="0 0 18 19" fill="none" xmlns="http://www.w3.org/2000/svg">
<path d="M7.79758 0.86559C8.12796 0.568751 8.55643 0.404541 9.00058 0.404541C9.44472 0.404541 9.87319 0.568751 10.2036 0.86559L16.8036 6.79599C16.9912 6.96474 17.1413 7.17107 17.244 7.40157C17.3468 7.63208 17.3999 7.88162 17.4 8.13399V16.6C17.4 17.0774 17.2103 17.5352 16.8728 17.8728C16.5352 18.2103 16.0774 18.4 15.6 18.4H12.6C12.1226 18.4 11.6647 18.2103 11.3272 17.8728C10.9896 17.5352 10.8 17.0774 10.8 16.6V12.4C10.8 12.2409 10.7368 12.0882 10.6242 11.9757C10.5117 11.8632 10.3591 11.8 10.2 11.8H7.79998C7.64085 11.8 7.48823 11.8632 7.37571 11.9757C7.26319 12.0882 7.19998 12.2409 7.19998 12.4V16.6C7.19998 17.0774 7.01033 17.5352 6.67277 17.8728C6.3352 18.2103 5.87737 18.4 5.39998 18.4H2.39998C1.92259 18.4 1.46475 18.2103 1.12718 17.8728C0.789618 17.5352 0.599976 17.0774 0.599976 16.6V8.13399C0.599976 7.62399 0.815975 7.13799 1.19758 6.79599L7.79758 0.86559ZM9.40077 1.75839C9.29067 1.65955 9.14793 1.60489 8.99998 1.60489C8.85202 1.60489 8.70928 1.65955 8.59918 1.75839L1.99918 7.68879C1.93665 7.74491 1.88661 7.81354 1.8523 7.89024C1.81798 7.96693 1.80016 8.04997 1.79998 8.13399V16.6C1.79998 16.7591 1.86319 16.9117 1.97571 17.0243C2.08823 17.1368 2.24085 17.2 2.39998 17.2H5.39998C5.55911 17.2 5.71172 17.1368 5.82424 17.0243C5.93676 16.9117 5.99998 16.7591 5.99998 16.6V12.4C5.99998 11.9226 6.18962 11.4648 6.52718 11.1272C6.86475 10.7896 7.32259 10.6 7.79998 10.6H10.2C10.6774 10.6 11.1352 10.7896 11.4728 11.1272C11.8103 11.4648 12 11.9226 12 12.4V16.6C12 16.7591 12.0632 16.9117 12.1757 17.0243C12.2882 17.1368 12.4408 17.2 12.6 17.2H15.6C15.7591 17.2 15.9117 17.1368 16.0242 17.0243C16.1368 16.9117 16.2 16.7591 16.2 16.6V8.13399C16.1998 8.04997 16.182 7.96693 16.1477 7.89024C16.1133 7.81354 16.0633 7.74491 16.0008 7.68879L9.40077 1.75839Z" fill="black"/>
</svg>
