<svg width="21" height="18" viewBox="0 0 21 18" fill="none" xmlns="http://www.w3.org/2000/svg">
<path d="M13.0714 12C13.5829 12 14.0735 12.2032 14.4351 12.5649C14.7968 12.9265 15 13.4171 15 13.9286V15.216L14.9931 15.3086C14.7274 17.1317 13.0903 18.0077 10.3431 18.0077C7.60629 18.0077 5.94257 17.142 5.58343 15.3403L5.57143 15.2143V13.9286C5.57143 13.4171 5.77462 12.9265 6.13629 12.5649C6.49797 12.2032 6.98851 12 7.5 12H13.0714ZM13.0714 13.2857H7.5C7.3295 13.2857 7.16599 13.3534 7.04543 13.474C6.92487 13.5946 6.85714 13.7581 6.85714 13.9286V15.1457C7.09714 16.1743 8.18571 16.722 10.3431 16.722C12.4997 16.722 13.5403 16.1811 13.7143 15.1654V13.9286C13.7143 13.7581 13.6466 13.5946 13.526 13.474C13.4054 13.3534 13.2419 13.2857 13.0714 13.2857ZM13.9234 6.85629L18.6429 6.85714C19.1543 6.85714 19.6449 7.06033 20.0066 7.42201C20.3682 7.78369 20.5714 8.27423 20.5714 8.78571V10.0731L20.5646 10.1657C20.2989 11.9889 18.6617 12.8649 15.9146 12.8649L15.6446 12.8623C15.3915 12.2521 14.9301 11.7516 14.3426 11.4497C14.784 11.5354 15.3069 11.5791 15.9146 11.5791C18.0711 11.5791 19.1117 11.0383 19.2857 10.0226V8.78571C19.2857 8.61522 19.218 8.4517 19.0974 8.33115C18.9769 8.21059 18.8134 8.14286 18.6429 8.14286H14.1429C14.1429 7.692 14.0657 7.25829 13.9234 6.85629ZM1.92857 6.85714L6.648 6.85629C6.52697 7.1987 6.45511 7.55655 6.43457 7.91914L6.42857 8.14286H1.92857C1.75808 8.14286 1.59456 8.21059 1.474 8.33115C1.35344 8.4517 1.28571 8.61522 1.28571 8.78571V10.0029C1.52571 11.0314 2.61429 11.5791 4.77171 11.5791C5.30486 11.5791 5.76943 11.5457 6.17057 11.4806C5.60953 11.7854 5.16996 12.2734 4.92514 12.8631L4.77086 12.8649C2.03486 12.8649 0.371143 11.9991 0.0119999 10.1974L0 10.0714V8.78571C0 8.27423 0.203188 7.78369 0.564865 7.42201C0.926543 7.06033 1.41708 6.85714 1.92857 6.85714ZM10.2857 5.14286C11.0814 5.14286 11.8444 5.45893 12.407 6.02154C12.9696 6.58415 13.2857 7.34721 13.2857 8.14286C13.2857 8.93851 12.9696 9.70157 12.407 10.2642C11.8444 10.8268 11.0814 11.1429 10.2857 11.1429C9.49006 11.1429 8.727 10.8268 8.16439 10.2642C7.60179 9.70157 7.28571 8.93851 7.28571 8.14286C7.28571 7.34721 7.60179 6.58415 8.16439 6.02154C8.727 5.45893 9.49006 5.14286 10.2857 5.14286ZM10.2857 6.42857C9.83106 6.42857 9.39502 6.60918 9.07353 6.93067C8.75204 7.25217 8.57143 7.6882 8.57143 8.14286C8.57143 8.59751 8.75204 9.03355 9.07353 9.35504C9.39502 9.67653 9.83106 9.85714 10.2857 9.85714C10.7404 9.85714 11.1764 9.67653 11.4979 9.35504C11.8194 9.03355 12 8.59751 12 8.14286C12 7.6882 11.8194 7.25217 11.4979 6.93067C11.1764 6.60918 10.7404 6.42857 10.2857 6.42857ZM15.8571 0C16.6528 0 17.4159 0.316071 17.9785 0.87868C18.5411 1.44129 18.8571 2.20435 18.8571 3C18.8571 3.79565 18.5411 4.55871 17.9785 5.12132C17.4159 5.68393 16.6528 6 15.8571 6C15.0615 6 14.2984 5.68393 13.7358 5.12132C13.1732 4.55871 12.8571 3.79565 12.8571 3C12.8571 2.20435 13.1732 1.44129 13.7358 0.87868C14.2984 0.316071 15.0615 0 15.8571 0ZM4.71429 0C5.50994 0 6.273 0.316071 6.83561 0.87868C7.39822 1.44129 7.71429 2.20435 7.71429 3C7.71429 3.79565 7.39822 4.55871 6.83561 5.12132C6.273 5.68393 5.50994 6 4.71429 6C3.91864 6 3.15557 5.68393 2.59297 5.12132C2.03036 4.55871 1.71429 3.79565 1.71429 3C1.71429 2.20435 2.03036 1.44129 2.59297 0.87868C3.15557 0.316071 3.91864 0 4.71429 0ZM15.8571 1.28571C15.4025 1.28571 14.9665 1.46633 14.645 1.78782C14.3235 2.10931 14.1429 2.54534 14.1429 3C14.1429 3.45466 14.3235 3.89069 14.645 4.21218C14.9665 4.53367 15.4025 4.71429 15.8571 4.71429C16.3118 4.71429 16.7478 4.53367 17.0693 4.21218C17.3908 3.89069 17.5714 3.45466 17.5714 3C17.5714 2.54534 17.3908 2.10931 17.0693 1.78782C16.7478 1.46633 16.3118 1.28571 15.8571 1.28571ZM4.71429 1.28571C4.25963 1.28571 3.82359 1.46633 3.5021 1.78782C3.18061 2.10931 3 2.54534 3 3C3 3.45466 3.18061 3.89069 3.5021 4.21218C3.82359 4.53367 4.25963 4.71429 4.71429 4.71429C5.16894 4.71429 5.60498 4.53367 5.92647 4.21218C6.24796 3.89069 6.42857 3.45466 6.42857 3C6.42857 2.54534 6.24796 2.10931 5.92647 1.78782C5.60498 1.46633 5.16894 1.28571 4.71429 1.28571Z" fill="black"/>
</svg>
